<svg width="837.7" height="78.1" viewBox="0 0 837.7 78.1" xmlns="http://www.w3.org/2000/svg"><g id="svgGroup" stroke-linecap="round" fill-rule="evenodd" font-size="9pt" stroke="#000" stroke-width="0.25mm" fill="none" style="stroke:#000;stroke-width:0.25mm;fill:none"><path d="M 0 56.5 L 8 56.5 L 10 67 A 12.95 12.95 0 0 0 11.462 67.686 Q 12.188 67.978 13.047 68.244 A 30.765 30.765 0 0 0 14.9 68.75 Q 18 69.5 21 69.5 Q 24 69.5 26.8 68.75 A 18.058 18.058 0 0 0 29.729 67.701 A 14.674 14.674 0 0 0 31.7 66.6 A 11.975 11.975 0 0 0 34.138 64.47 A 10.684 10.684 0 0 0 35.05 63.25 A 7.951 7.951 0 0 0 36.288 59.283 A 9.691 9.691 0 0 0 36.3 58.8 A 8.671 8.671 0 0 0 35.999 56.464 A 6.792 6.792 0 0 0 34.7 53.95 A 13.504 13.504 0 0 0 32.26 51.657 A 17.175 17.175 0 0 0 30.55 50.55 A 31.304 31.304 0 0 0 27.114 48.877 A 38.858 38.858 0 0 0 24.8 48 Q 21.6 46.9 18.3 45.7 A 185.191 185.191 0 0 1 11.753 42.747 A 170.306 170.306 0 0 1 11.55 42.65 A 25.045 25.045 0 0 1 6.071 39.129 A 23.453 23.453 0 0 1 5.75 38.85 Q 3.2 36.6 1.7 33.4 A 14.792 14.792 0 0 1 0.623 30.07 Q 0.306 28.515 0.226 26.722 A 27.64 27.64 0 0 1 0.2 25.5 A 21.605 21.605 0 0 1 0.621 21.132 A 16.299 16.299 0 0 1 2.15 16.8 Q 4.1 13.1 7.35 10.7 Q 10.6 8.3 14.95 7.15 A 35.317 35.317 0 0 1 23.204 6.01 A 39.552 39.552 0 0 1 24.1 6 A 36.659 36.659 0 0 1 26.967 6.117 A 44.883 44.883 0 0 1 28.8 6.3 Q 31.3 6.6 33.7 7.05 A 69.725 69.725 0 0 1 36.583 7.652 A 58.406 58.406 0 0 1 38.2 8.05 A 1156.309 1156.309 0 0 1 39.691 8.441 Q 40.277 8.596 40.804 8.735 A 597.321 597.321 0 0 1 41.8 9 L 45 10 L 44.5 27 L 38 27 L 34.6 16.3 A 34.403 34.403 0 0 0 29.394 15.052 A 31.806 31.806 0 0 0 29.05 15 Q 26.3 14.6 23.4 14.6 A 19.373 19.373 0 0 0 20.474 14.812 A 15.169 15.169 0 0 0 18.15 15.35 A 14.189 14.189 0 0 0 15.882 16.286 A 11.116 11.116 0 0 0 14.15 17.4 A 10.877 10.877 0 0 0 12.55 18.934 A 8.886 8.886 0 0 0 11.6 20.3 A 6.963 6.963 0 0 0 10.816 22.391 A 6.322 6.322 0 0 0 10.7 23.6 Q 10.8 27.8 13.5 30.2 A 21.518 21.518 0 0 0 16.949 32.679 A 28.59 28.59 0 0 0 20.2 34.3 A 96.35 96.35 0 0 0 25.454 36.347 A 114.801 114.801 0 0 0 28.85 37.5 A 46.533 46.533 0 0 1 35.944 40.433 A 42.047 42.047 0 0 1 37.45 41.25 Q 41.4 43.5 44.05 47.1 A 12.945 12.945 0 0 1 46.146 51.658 Q 46.596 53.438 46.681 55.522 A 24.186 24.186 0 0 1 46.7 56.5 Q 46.7 61.7 44.7 65.7 Q 42.7 69.7 39.2 72.45 A 23.71 23.71 0 0 1 33.497 75.732 A 28.926 28.926 0 0 1 30.9 76.65 A 34.36 34.36 0 0 1 22.973 78.031 A 40.064 40.064 0 0 1 20.6 78.1 A 36.862 36.862 0 0 1 18.014 78.005 A 46.468 46.468 0 0 1 15.85 77.8 Q 13.3 77.5 10.85 77.05 Q 8.4 76.6 6.3 76.05 A 60.727 60.727 0 0 1 4.823 75.645 Q 4.249 75.479 3.743 75.317 A 28.818 28.818 0 0 1 2.8 75 L 0 74 L 0 56.5 Z" id="0" vector-effect="non-scaling-stroke"/><path d="M 64.8 11.9 L 74.8 9.9 L 74.8 24.5 L 89.3 24.5 L 89.3 32 L 74.8 32 L 74.8 64.1 A 10.868 10.868 0 0 0 75.014 66.364 Q 75.726 69.69 78.801 70.132 A 7.02 7.02 0 0 0 79.8 70.2 A 10.437 10.437 0 0 0 82.165 69.905 Q 84.428 69.376 87.219 67.904 A 34.853 34.853 0 0 0 87.6 67.7 L 90.3 73 A 27.686 27.686 0 0 1 84.301 76.407 A 21.159 21.159 0 0 1 76.3 78 A 12.63 12.63 0 0 1 72.335 77.404 A 10.418 10.418 0 0 1 68 74.65 Q 64.943 71.45 64.806 64.189 A 36.591 36.591 0 0 1 64.8 63.5 L 64.8 32 L 54.8 32 L 54.8 25.5 L 64.8 24.5 L 64.8 11.9 Z" id="1" vector-effect="non-scaling-stroke"/><path d="M 127.8 24.5 L 146.3 24 L 146.3 69 L 154.8 71 L 154.8 76.5 L 138.3 77 L 137.3 70 Q 133.1 73.7 127.8 75.85 A 38.442 38.442 0 0 1 124.494 77.029 Q 122.84 77.53 121.378 77.772 A 15.805 15.805 0 0 1 118.8 78 A 21.687 21.687 0 0 1 114.191 77.541 Q 109.55 76.531 106.8 73.3 Q 102.8 68.6 102.8 60.1 L 102.8 32 L 94.3 30 L 94.3 24.5 L 112.8 24 L 112.8 59.1 A 21.421 21.421 0 0 0 112.966 61.864 Q 113.391 65.117 114.9 66.95 Q 116.874 69.347 120.793 69.491 A 13.854 13.854 0 0 0 121.3 69.5 Q 125.6 69.5 129.2 67.5 A 33.238 33.238 0 0 0 131.264 66.26 Q 133.263 64.951 134.421 63.687 A 9.809 9.809 0 0 0 134.5 63.6 L 136.3 61.6 L 136.3 32 L 127.8 30 L 127.8 24.5 Z" id="2" vector-effect="non-scaling-stroke"/><path d="M 189.3 0.5 L 207.8 0 L 207.8 69 L 216.3 71 L 216.3 76.5 L 199.3 77 L 198.5 71.3 A 22.377 22.377 0 0 1 182.305 77.998 A 28.46 28.46 0 0 1 182 78 A 21.634 21.634 0 0 1 175.603 77.102 A 16.647 16.647 0 0 1 167.05 71.05 A 23.745 23.745 0 0 1 163.304 63.433 Q 162.317 60.118 161.978 56.144 A 51.121 51.121 0 0 1 161.8 51.8 A 41.611 41.611 0 0 1 162.665 43.062 Q 163.907 37.282 166.928 32.897 A 25.003 25.003 0 0 1 168.5 30.85 A 21.44 21.44 0 0 1 179.711 24.014 Q 183.592 23 188.3 23 Q 193.2 23 197.8 24.6 L 197.8 8 L 189.3 6 L 189.3 0.5 Z M 197.8 62.5 L 197.8 33 Q 194.625 31.186 188.57 31.017 A 45.676 45.676 0 0 0 187.3 31 A 15.756 15.756 0 0 0 180.39 32.411 Q 173.734 35.621 172.554 46.132 A 43.747 43.747 0 0 0 172.3 51 A 41.203 41.203 0 0 0 172.628 56.377 Q 173.301 61.473 175.35 64.9 A 9.881 9.881 0 0 0 182.428 69.805 A 13.88 13.88 0 0 0 184.8 70 A 15.325 15.325 0 0 0 188.924 69.468 A 12.187 12.187 0 0 0 193.1 67.4 A 33.39 33.39 0 0 0 195.099 65.648 Q 196.816 64.009 197.8 62.5 Z" id="3" vector-effect="non-scaling-stroke"/><path d="M 268.3 46.5 L 267.8 51.8 L 233.3 52 Q 233.3 60.2 237.25 65.1 Q 241.2 70 247.8 70 Q 250 70 252.2 69.6 Q 254.4 69.2 256.35 68.6 A 29.754 29.754 0 0 0 258.542 67.835 A 23.972 23.972 0 0 0 259.9 67.25 A 32.041 32.041 0 0 0 261.03 66.695 Q 261.913 66.238 262.6 65.8 L 264.6 64.5 L 268.1 69.7 Q 265.207 71.998 262.712 73.462 A 30.224 30.224 0 0 1 261.85 73.95 Q 259.089 75.452 255.39 76.672 A 54.617 54.617 0 0 1 255.15 76.75 A 25.817 25.817 0 0 1 249.026 77.921 A 30.73 30.73 0 0 1 246.8 78 Q 236.61 78 230.671 72.668 A 19.088 19.088 0 0 1 228.9 70.85 A 24.124 24.124 0 0 1 224.054 61.464 Q 222.8 56.922 222.8 51.3 Q 222.8 45.1 224.6 39.9 A 28.668 28.668 0 0 1 227.416 33.966 A 24.732 24.732 0 0 1 229.65 30.95 Q 232.9 27.2 237.4 25.1 A 22.62 22.62 0 0 1 245.634 23.051 A 26.744 26.744 0 0 1 247.3 23 A 26.786 26.786 0 0 1 255.99 24.291 Q 268.3 28.508 268.3 46.5 Z M 233.7 44.5 L 257.7 44.5 Q 257.7 38.4 255.1 34.6 A 8.35 8.35 0 0 0 250.013 31.171 Q 248.513 30.8 246.7 30.8 A 13.667 13.667 0 0 0 242.598 31.387 A 10.911 10.911 0 0 0 237.6 34.65 A 15.302 15.302 0 0 0 234.252 41.127 A 20.677 20.677 0 0 0 233.7 44.5 Z" id="4" vector-effect="non-scaling-stroke"/><path d="M 275.8 24.5 L 292.3 24 L 293.2 31.1 Q 294.2 30.3 296 28.9 A 25.481 25.481 0 0 1 298.096 27.441 A 34.2 34.2 0 0 1 300.25 26.2 A 31.549 31.549 0 0 1 303.855 24.578 A 37.37 37.37 0 0 1 305.65 23.95 Q 308.6 23 311.8 23 Q 317.768 23 321.483 25.579 A 11.863 11.863 0 0 1 323.85 27.75 Q 327.183 31.758 327.704 38.435 A 33.001 33.001 0 0 1 327.8 41 L 327.8 69 L 335.3 71.5 L 335.3 77 L 311.3 77 L 311.3 71.5 L 317.8 69 L 317.8 42 A 22.141 22.141 0 0 0 317.634 39.188 Q 317.232 36.06 315.858 34.25 A 6.458 6.458 0 0 0 315.7 34.05 Q 313.726 31.653 309.807 31.509 A 13.854 13.854 0 0 0 309.3 31.5 Q 307.2 31.5 305.15 32.05 A 19.515 19.515 0 0 0 302.017 33.175 A 17.549 17.549 0 0 0 301.35 33.5 A 21.523 21.523 0 0 0 299.413 34.622 A 17.438 17.438 0 0 0 298.25 35.45 A 21.248 21.248 0 0 0 297.155 36.359 Q 296.608 36.847 296.162 37.324 A 12.431 12.431 0 0 0 296 37.5 L 294.3 39.5 L 294.3 69 L 300.8 71.5 L 300.8 77 L 275.8 77 L 275.8 71.5 L 284.3 69 L 284.3 32 L 275.8 30 L 275.8 24.5 Z" id="5" vector-effect="non-scaling-stroke"/><path d="M 350.3 11.9 L 360.3 9.9 L 360.3 24.5 L 374.8 24.5 L 374.8 32 L 360.3 32 L 360.3 64.1 A 10.868 10.868 0 0 0 360.514 66.364 Q 361.226 69.69 364.301 70.132 A 7.02 7.02 0 0 0 365.3 70.2 A 10.437 10.437 0 0 0 367.665 69.905 Q 369.928 69.376 372.719 67.904 A 34.853 34.853 0 0 0 373.1 67.7 L 375.8 73 A 27.686 27.686 0 0 1 369.801 76.407 A 21.159 21.159 0 0 1 361.8 78 A 12.63 12.63 0 0 1 357.835 77.404 A 10.418 10.418 0 0 1 353.5 74.65 Q 350.443 71.45 350.306 64.189 A 36.591 36.591 0 0 1 350.3 63.5 L 350.3 32 L 340.3 32 L 340.3 25.5 L 350.3 24.5 L 350.3 11.9 Z" id="6" vector-effect="non-scaling-stroke"/><path d="M 449.8 24 L 447.3 15 L 425.8 15 L 425.8 36.5 L 448.8 36.5 L 448.8 44.5 L 425.8 44.5 L 425.8 69 L 448.8 69 L 450.8 59 L 457.3 59 L 457.3 77 L 406.8 77 L 406.8 71 L 415.3 69 L 415.3 15 L 406.8 13 L 406.8 7.5 L 425.8 7 L 456.3 7 L 456.3 24 L 449.8 24 Z" id="8" vector-effect="non-scaling-stroke"/><path d="M 468 75.8 L 467.9 61 L 474.9 61 L 476 69.6 A 5.965 5.965 0 0 0 476.653 69.813 Q 477.377 70.009 478.445 70.16 A 28.978 28.978 0 0 0 479.15 70.25 Q 481.3 70.5 483.4 70.5 A 34.401 34.401 0 0 0 486.689 70.354 Q 489.942 70.041 491.966 69.052 A 7.837 7.837 0 0 0 492.85 68.55 A 6.34 6.34 0 0 0 495.713 63.914 A 9.546 9.546 0 0 0 495.8 62.6 A 5.728 5.728 0 0 0 495.435 60.518 A 5.144 5.144 0 0 0 493.75 58.3 Q 491.828 56.8 488.983 55.739 A 25.705 25.705 0 0 0 488.6 55.6 Q 485.5 54.5 481.85 53.4 A 33.645 33.645 0 0 1 476.082 51.081 A 30.639 30.639 0 0 1 475.1 50.55 Q 472 48.8 469.95 46 A 9.985 9.985 0 0 1 468.381 42.634 Q 467.9 40.828 467.9 38.6 A 17.909 17.909 0 0 1 468.491 33.863 A 12.551 12.551 0 0 1 472.9 27.15 A 18.107 18.107 0 0 1 479.25 23.981 Q 481.788 23.259 484.79 23.063 A 34.258 34.258 0 0 1 486.2 23 Q 489.7 23.1 493.35 23.55 A 40.727 40.727 0 0 1 499.38 24.776 A 46.198 46.198 0 0 1 500.8 25.2 L 503.3 26 L 503 39.5 L 496.5 39.5 L 494.9 31.7 A 6.505 6.505 0 0 0 494.443 31.551 Q 493.561 31.295 491.8 30.95 A 24.4 24.4 0 0 0 488.339 30.536 A 28.635 28.635 0 0 0 486.9 30.5 A 19.333 19.333 0 0 0 484.52 30.642 A 16.664 16.664 0 0 0 483.5 30.8 A 10.083 10.083 0 0 0 481.723 31.297 A 8.344 8.344 0 0 0 480.65 31.8 Q 479.4 32.5 478.65 33.8 Q 477.944 35.024 477.903 36.779 A 9.364 9.364 0 0 0 477.9 37 A 6.578 6.578 0 0 0 478.2 39.037 A 5.249 5.249 0 0 0 479.95 41.55 Q 482 43.2 485.1 44.4 A 86.446 86.446 0 0 0 489.19 45.861 A 106.056 106.056 0 0 0 491.85 46.7 A 33.645 33.645 0 0 1 497.618 49.019 A 30.639 30.639 0 0 1 498.6 49.55 Q 501.7 51.3 503.75 54 A 9.579 9.579 0 0 1 505.379 57.462 Q 505.8 59.106 505.8 61.1 Q 505.8 65.3 504 68.5 Q 502.2 71.7 499.15 73.85 A 20.568 20.568 0 0 1 494.249 76.372 A 24.881 24.881 0 0 1 492.05 77.05 Q 488 78.1 483.4 78.1 Q 481.7 78.1 479.85 77.95 Q 478 77.8 476.2 77.55 Q 474.4 77.3 472.85 77 A 39.403 39.403 0 0 1 471.807 76.784 Q 471.32 76.676 470.904 76.568 A 16.925 16.925 0 0 1 470.3 76.4 L 468 75.8 Z" id="9" vector-effect="non-scaling-stroke"/><path d="M 515.1 75.8 L 515 61 L 522 61 L 523.1 69.6 A 5.965 5.965 0 0 0 523.753 69.813 Q 524.477 70.009 525.545 70.16 A 28.978 28.978 0 0 0 526.25 70.25 Q 528.4 70.5 530.5 70.5 A 34.401 34.401 0 0 0 533.789 70.354 Q 537.042 70.041 539.066 69.052 A 7.837 7.837 0 0 0 539.95 68.55 A 6.34 6.34 0 0 0 542.813 63.914 A 9.546 9.546 0 0 0 542.9 62.6 A 5.728 5.728 0 0 0 542.535 60.518 A 5.144 5.144 0 0 0 540.85 58.3 Q 538.928 56.8 536.083 55.739 A 25.705 25.705 0 0 0 535.7 55.6 Q 532.6 54.5 528.95 53.4 A 33.645 33.645 0 0 1 523.182 51.081 A 30.639 30.639 0 0 1 522.2 50.55 Q 519.1 48.8 517.05 46 A 9.985 9.985 0 0 1 515.481 42.634 Q 515 40.828 515 38.6 A 17.909 17.909 0 0 1 515.591 33.863 A 12.551 12.551 0 0 1 520 27.15 A 18.107 18.107 0 0 1 526.35 23.981 Q 528.888 23.259 531.89 23.063 A 34.258 34.258 0 0 1 533.3 23 Q 536.8 23.1 540.45 23.55 A 40.727 40.727 0 0 1 546.48 24.776 A 46.198 46.198 0 0 1 547.9 25.2 L 550.4 26 L 550.1 39.5 L 543.6 39.5 L 542 31.7 A 6.505 6.505 0 0 0 541.543 31.551 Q 540.661 31.295 538.9 30.95 A 24.4 24.4 0 0 0 535.439 30.536 A 28.635 28.635 0 0 0 534 30.5 A 19.333 19.333 0 0 0 531.62 30.642 A 16.664 16.664 0 0 0 530.6 30.8 A 10.083 10.083 0 0 0 528.823 31.297 A 8.344 8.344 0 0 0 527.75 31.8 Q 526.5 32.5 525.75 33.8 Q 525.044 35.024 525.003 36.779 A 9.364 9.364 0 0 0 525 37 A 6.578 6.578 0 0 0 525.3 39.037 A 5.249 5.249 0 0 0 527.05 41.55 Q 529.1 43.2 532.2 44.4 A 86.446 86.446 0 0 0 536.29 45.861 A 106.056 106.056 0 0 0 538.95 46.7 A 33.645 33.645 0 0 1 544.718 49.019 A 30.639 30.639 0 0 1 545.7 49.55 Q 548.8 51.3 550.85 54 A 9.579 9.579 0 0 1 552.479 57.462 Q 552.9 59.106 552.9 61.1 Q 552.9 65.3 551.1 68.5 Q 549.3 71.7 546.25 73.85 A 20.568 20.568 0 0 1 541.349 76.372 A 24.881 24.881 0 0 1 539.15 77.05 Q 535.1 78.1 530.5 78.1 Q 528.8 78.1 526.95 77.95 Q 525.1 77.8 523.3 77.55 Q 521.5 77.3 519.95 77 A 39.403 39.403 0 0 1 518.907 76.784 Q 518.42 76.676 518.004 76.568 A 16.925 16.925 0 0 1 517.4 76.4 L 515.1 75.8 Z" id="10" vector-effect="non-scaling-stroke"/><path d="M 607 46.5 L 606.5 51.8 L 572 52 Q 572 60.2 575.95 65.1 Q 579.9 70 586.5 70 Q 588.7 70 590.9 69.6 Q 593.1 69.2 595.05 68.6 A 29.754 29.754 0 0 0 597.242 67.835 A 23.972 23.972 0 0 0 598.6 67.25 A 32.041 32.041 0 0 0 599.73 66.695 Q 600.613 66.238 601.3 65.8 L 603.3 64.5 L 606.8 69.7 Q 603.907 71.998 601.412 73.462 A 30.224 30.224 0 0 1 600.55 73.95 Q 597.789 75.452 594.09 76.672 A 54.617 54.617 0 0 1 593.85 76.75 A 25.817 25.817 0 0 1 587.726 77.921 A 30.73 30.73 0 0 1 585.5 78 Q 575.31 78 569.371 72.668 A 19.088 19.088 0 0 1 567.6 70.85 A 24.124 24.124 0 0 1 562.754 61.464 Q 561.5 56.922 561.5 51.3 Q 561.5 45.1 563.3 39.9 A 28.668 28.668 0 0 1 566.116 33.966 A 24.732 24.732 0 0 1 568.35 30.95 Q 571.6 27.2 576.1 25.1 A 22.62 22.62 0 0 1 584.334 23.051 A 26.744 26.744 0 0 1 586 23 A 26.786 26.786 0 0 1 594.69 24.291 Q 607 28.508 607 46.5 Z M 572.4 44.5 L 596.4 44.5 Q 596.4 38.4 593.8 34.6 A 8.35 8.35 0 0 0 588.713 31.171 Q 587.213 30.8 585.4 30.8 A 13.667 13.667 0 0 0 581.298 31.387 A 10.911 10.911 0 0 0 576.3 34.65 A 15.302 15.302 0 0 0 572.952 41.127 A 20.677 20.677 0 0 0 572.4 44.5 Z" id="11" vector-effect="non-scaling-stroke"/><path d="M 614.5 24.5 L 631 24 L 631.9 31.1 Q 632.9 30.3 634.7 28.9 A 25.481 25.481 0 0 1 636.796 27.441 A 34.2 34.2 0 0 1 638.95 26.2 A 31.549 31.549 0 0 1 642.555 24.578 A 37.37 37.37 0 0 1 644.35 23.95 Q 647.3 23 650.5 23 Q 656.468 23 660.183 25.579 A 11.863 11.863 0 0 1 662.55 27.75 Q 665.883 31.758 666.404 38.435 A 33.001 33.001 0 0 1 666.5 41 L 666.5 69 L 674 71.5 L 674 77 L 650 77 L 650 71.5 L 656.5 69 L 656.5 42 A 22.141 22.141 0 0 0 656.334 39.188 Q 655.932 36.06 654.558 34.25 A 6.458 6.458 0 0 0 654.4 34.05 Q 652.426 31.653 648.507 31.509 A 13.854 13.854 0 0 0 648 31.5 Q 645.9 31.5 643.85 32.05 A 19.515 19.515 0 0 0 640.717 33.175 A 17.549 17.549 0 0 0 640.05 33.5 A 21.523 21.523 0 0 0 638.113 34.622 A 17.438 17.438 0 0 0 636.95 35.45 A 21.248 21.248 0 0 0 635.855 36.359 Q 635.308 36.847 634.862 37.324 A 12.431 12.431 0 0 0 634.7 37.5 L 633 39.5 L 633 69 L 639.5 71.5 L 639.5 77 L 614.5 77 L 614.5 71.5 L 623 69 L 623 32 L 614.5 30 L 614.5 24.5 Z" id="12" vector-effect="non-scaling-stroke"/><path d="M 689 11.9 L 699 9.9 L 699 24.5 L 713.5 24.5 L 713.5 32 L 699 32 L 699 64.1 A 10.868 10.868 0 0 0 699.214 66.364 Q 699.926 69.69 703.001 70.132 A 7.02 7.02 0 0 0 704 70.2 A 10.437 10.437 0 0 0 706.365 69.905 Q 708.628 69.376 711.419 67.904 A 34.853 34.853 0 0 0 711.8 67.7 L 714.5 73 A 27.686 27.686 0 0 1 708.501 76.407 A 21.159 21.159 0 0 1 700.5 78 A 12.63 12.63 0 0 1 696.535 77.404 A 10.418 10.418 0 0 1 692.2 74.65 Q 689.143 71.45 689.006 64.189 A 36.591 36.591 0 0 1 689 63.5 L 689 32 L 679 32 L 679 25.5 L 689 24.5 L 689 11.9 Z" id="13" vector-effect="non-scaling-stroke"/><path d="M 720.5 24.5 L 739 24 L 739 69 L 746.5 71.5 L 746.5 77 L 720.5 77 L 720.5 71.5 L 729 69 L 729 32 L 720.5 30 L 720.5 24.5 Z M 740 8 A 16.078 16.078 0 0 0 739.984 7.283 Q 739.682 0.5 733.5 0.5 A 8.247 8.247 0 0 0 733.197 0.506 A 6.245 6.245 0 0 0 728.85 2.35 A 5.779 5.779 0 0 0 728.406 2.848 Q 727.554 3.923 727.219 5.403 A 9.472 9.472 0 0 0 727 7.5 A 12.127 12.127 0 0 0 727.012 8.043 Q 727.062 9.167 727.325 10.11 A 6.115 6.115 0 0 0 728.7 12.65 Q 730.4 14.5 733.1 14.5 A 7.08 7.08 0 0 0 735.598 14.048 A 8.432 8.432 0 0 0 737.8 12.8 A 5.392 5.392 0 0 0 739.703 10.088 A 6.975 6.975 0 0 0 740 8 Z" id="14" vector-effect="non-scaling-stroke"/><path d="M 758 39.5 L 757.5 27 A 71.392 71.392 0 0 1 766.527 24.283 Q 771.316 23.201 775.693 23.031 A 41.612 41.612 0 0 1 777.3 23 A 35.018 35.018 0 0 1 782.4 23.347 Q 784.984 23.728 787.084 24.529 A 14.974 14.974 0 0 1 790.8 26.55 A 10.862 10.862 0 0 1 794.467 31.691 Q 795.5 34.563 795.5 38.5 L 795.5 69 L 803.5 71 L 803.5 76.5 L 788 77 L 785.9 70 Q 777.9 78 770.1 78 Q 762.3 78 758.4 74.1 A 12.644 12.644 0 0 1 755.194 68.488 Q 754.63 66.497 754.524 64.118 A 25.184 25.184 0 0 1 754.5 63 A 14.378 14.378 0 0 1 756.632 54.999 Q 760.322 49.317 770.402 47.94 A 52.679 52.679 0 0 1 777.5 47.5 L 785.5 47.5 L 785.5 39.5 A 12.248 12.248 0 0 0 785.012 35.884 Q 783.348 30.5 776 30.5 A 43.656 43.656 0 0 0 772.364 30.642 Q 770.664 30.785 769.211 31.07 A 19.715 19.715 0 0 0 767.1 31.6 L 765.9 32 L 764.5 39.5 L 758 39.5 Z M 785.5 62 L 785.5 54 L 778.5 54 Q 771 54 767.85 55.95 Q 764.7 57.9 764.7 62 A 13.184 13.184 0 0 0 764.881 64.257 Q 765.278 66.541 766.55 67.95 Q 768.353 69.948 771.723 69.999 A 11.739 11.739 0 0 0 771.9 70 A 10.351 10.351 0 0 0 774.75 69.589 A 12.015 12.015 0 0 0 775.35 69.4 Q 777.1 68.8 778.75 67.9 A 20.915 20.915 0 0 0 780.765 66.654 A 17.554 17.554 0 0 0 781.7 65.95 Q 783 64.9 783.8 64 L 785.5 62 Z" id="15" vector-effect="non-scaling-stroke"/><path d="M 809 0.5 L 827.7 0 L 827.7 69 L 837.7 71.5 L 837.7 77 L 809 77 L 809 71.5 L 817.5 69 L 817.5 8 L 809 6 L 809 0.5 Z" id="16" vector-effect="non-scaling-stroke"/></g></svg>